<?xml version="1.0" encoding="UTF-8"?><svg id="a" xmlns="http://www.w3.org/2000/svg" viewBox="0 0 1101 988.51"><path d="M432.12,343.54l-223.27,173.61c5.46,33.45,11.87,63.51,18.99,88.43l203.53-156.24v438.97c-122.38-36.12-215.52-122.61-260.44-239.05h0c-10.98-24.99-19.17-45.82-25.54-82.77l.25-.19-.25,.19c-30.44-198.32,69.84-392.22,286.57-467.64V254.73l81.74,35.17-.28-289.9C335.05,6.1-3.74,190.78,72.68,606.41H0v80.32l95.49,.24c84.09,184.97,238.07,281.45,417.03,301.54l.71-523.96-.52-89.14-80.6-31.87Z" style="fill:#a9bd93;"/><path d="M1036.24,590.97C1097.66,283.33,870.49,29.54,591.65,0l.24,233.58,82.93-.48,.48-133.54c198.53,67.33,317.93,262.02,285.74,461.23l-182.61-75.17v-173.86l-187.56,1.27,.67,93.54v89.58l80.68,32.56v-139.72h27.05l.28,150.57,238.57,101.07c-43.51,122.47-139.8,212.96-262.34,246.18l-.95-269.94-84.28-34.53,1.58,406.18c199.1-12.26,354.51-144.85,424.16-318.18h84.72v-79.6l-64.76,.24Z" style="fill:#a9bd93;"/></svg>